<svg xmlns="http://www.w3.org/2000/svg" viewBox="0 0 276.667 56.667">
  <title>logowhite</title>
  <g>
    <path d="M165.867,30.176c-.4-.069-1.732-.292-2.124-.363-2.108-.379-3.915-.872-3.915-2.994,0-1.822,1.91-2.672,4.287-2.672a16.559,16.559,0,0,1,6.993,1.779l1.938-5.114a18.7,18.7,0,0,0-8.871-2.073c-4.553,0-10.112,2.39-10.112,8.337,0,5.322,3.8,7.03,7.468,7.675.506.093,2.1.365,2.552.444,2.465.417,3.819,1.335,3.819,2.948,0,2.047-1.923,3.007-4.834,3.007a18.917,18.917,0,0,1-8.187-1.714l-2.147,5c.667.344,3.849,2.138,10.058,2.138,6.025,0,10.86-2.984,10.86-8.538-.047-5.17-3.522-7.131-7.785-7.863" style="fill: #fff"/>
    <path d="M184.264,9.424l-5.7,3.154v6.68h-3v5.453h3V36.5c0,5.036,2.069,9.559,9.371,9.559h2.283V40.6h-.856c-3.589,0-5.1-2.071-5.1-4.885v-11h6.549V19.258h-6.549Z" style="fill: #fff"/>
    <path d="M228.812,24.282c2.226,0,4.5,1.012,5.189,3.461l5.175-1.968c-1.449-5.122-6.207-7.037-10.4-7.037-7.52,0-10.552,4.67-10.552,9.209v9.419c0,4.537,3.031,9.211,10.552,9.211,4.2,0,8.955-1.918,10.4-7.04L234,37.57c-.684,2.446-2.963,3.464-5.189,3.464-3.874,0-4.9-2.121-4.9-4.539V28.816c0-2.415,1.027-4.534,4.9-4.534" style="fill: #fff"/>
    <polygon points="253.194 31.295 263.854 19.258 256.842 19.258 247.672 29.75 247.672 9.425 241.966 9.425 241.966 46.059 247.672 46.059 247.672 37.528 249.544 35.414 257.71 46.059 264.553 46.059 253.194 31.295" style="fill: #fff"/>
    <path d="M269.985,24.227a2.724,2.724,0,0,1-2.791-2.712,2.785,2.785,0,0,1,5.569,0A2.713,2.713,0,0,1,269.985,24.227Zm0-4.865a2.121,2.121,0,1,0,2.074,2.153A2.121,2.121,0,0,0,269.985,19.361Zm.438,3.509a.073.073,0,0,1-.066-.039l-.426-.931h-.3v.917c0,.026-.015.053-.04.053h-.532a.058.058,0,0,1-.054-.053V20.066h1.064a.916.916,0,0,1,1.036.877V21a.943.943,0,0,1-.559.878l.532.943c.013.026,0,.053-.027.053Zm.054-1.914c0-.212-.134-.411-.492-.411h-.358v.9h.358c.386,0,.492-.173.492-.452Z" style="fill: #fff"/>
  </g>
  <g>
    <path d="M206.764,25.106h-5.93a1.709,1.709,0,0,0-1.708,1.705v6.434h-5.849V26.812a7.552,7.552,0,0,1,7.557-7.554h5.93Z" style="fill: #fff"/>
    <path d="M201.938,40.209h5.933a1.709,1.709,0,0,0,1.706-1.707V32.07h5.849V38.5a7.556,7.556,0,0,1-7.555,7.557h-5.933Z" style="fill: #fff"/>
    <path d="M105.241,19.258h6.547v5.453h-6.547v11c0,2.813,1.506,4.885,5.092,4.885h.856v5.458H108.9c-7.3,0-9.367-4.523-9.367-9.559V24.711h-9.6v11c0,2.813,1.509,4.885,5.095,4.885h.854v5.458H93.6c-7.3,0-9.368-4.523-9.368-9.559V24.711H81.345V19.258h2.891v-6.68l5.705-3.154v9.834h9.6v-6.68l5.7-3.154Z" style="fill: #fff"/>
    <path d="M43.682,18.738A13.634,13.634,0,0,0,38.4,19.785V9.424H32.7V46.059h5.7V25.116a8.63,8.63,0,0,1,4.407-1.15c3.585,0,5.271,1.993,5.271,4.933v17.16h5.7V28.119c0-5.409-3.918-9.381-10.1-9.381" style="fill: #fff"/>
    <path d="M72.585,40.729a8.227,8.227,0,0,1-3.82.92c-4.256,0-5.856-2.168-5.856-5.158V19.258h-5.7V36.595c0,6.739,3.9,9.982,10.856,9.982A26.654,26.654,0,0,0,78.286,44.35V19.258h-5.7Z" style="fill: #fff"/>
    <path d="M22.035,30.176c-.395-.069-1.731-.292-2.124-.363C17.806,29.434,16,28.94,16,26.818,16,25,17.9,24.147,20.284,24.147a16.553,16.553,0,0,1,6.992,1.779l1.937-5.114a18.678,18.678,0,0,0-8.872-2.073c-4.55,0-10.11,2.39-10.11,8.337,0,5.322,3.8,7.03,7.469,7.675.5.093,2.1.365,2.555.444,2.465.417,3.812,1.335,3.812,2.948,0,2.047-1.917,3.007-4.827,3.007a18.923,18.923,0,0,1-8.19-1.714l-2.146,5c.669.344,3.85,2.138,10.059,2.138,6.025,0,10.86-2.984,10.86-8.538-.052-5.17-3.526-7.131-7.787-7.863" style="fill: #fff"/>
    <path d="M135.366,27.947c0-4.9-3.736-9.211-10.454-9.211-7.626,0-10.554,4.762-10.554,9.211v8.9c0,6.157,3.935,9.729,10.554,9.729,5.839,0,8.87-3.376,9.77-5.4l-4.814-2.892a5.338,5.338,0,0,1-4.918,2.862c-3.525,0-4.882-1.968-4.882-4.433l-.02-1.468h15.318Zm-5.7,2.679h-9.615v-1.95c0-2.175,1.093-4.508,4.838-4.508,3.609,0,4.777,2.272,4.777,4.4Z" style="fill: #fff"/>
    <path d="M139.015,27.957v18.1h5.7V28.444c0-1.538.873-4.167,5.059-4.167a21.48,21.48,0,0,1,2.617.275V19.025a14.356,14.356,0,0,0-2.909-.289c-7.248,0-10.464,4.546-10.464,9.221" style="fill: #fff"/>
  </g>
</svg>
